
nColumns=19
nRows=37
DataType=double
version=3
OpenSimVersion=4.4-2022-10-11-798caa840
endheader
time	ground_force_calcn_r_vx	ground_force_calcn_r_vy	ground_force_calcn_r_vz	ground_force_calcn_r_px	ground_force_calcn_r_py	ground_force_calcn_r_pz	ground_force_calcn_r_mx	ground_force_calcn_r_my	ground_force_calcn_r_mz	ground_force_calcn_l_vx	ground_force_calcn_l_vy	ground_force_calcn_l_vz	ground_force_calcn_l_px	ground_force_calcn_l_py	ground_force_calcn_l_pz	ground_force_calcn_l_mx	ground_force_calcn_l_my	ground_force_calcn_l_mz
1.16	0	0	0	0	0	0	0	0	0	-42.4643	77.89239999999999	10.9619	-0.0712325	0	-0.84419	0.157673	-0.289221	-0.0407023
1.17	-81.4213	77.5274	-12.8472	-0.08766400000000001	0	-0.367861	-0.108903	0.103695	-0.0171835	-201.564	323.34	51.3189	-0.087441	0	-0.849944	0.357818	-0.573996	-0.0911018
1.18	-245.314	443.131	-69.2084	-0.16521	0	-0.379347	-0.365028	0.65938	-0.102982	-248.473	460.501	89.3215	-0.0961299	0	-0.848133	0.646483	-1.19814	-0.232398
1.19	-157.295	928.2809999999999	-90.9937	-0.213391	0	-0.389505	0.139032	-0.820499	0.0804285	-135.599	665.123	93.45959999999999	-0.137542	0	-0.841815	-0.0726987	0.356593	0.0501066
1.2	-38.4454	883.55	-52.0227	-0.222991	0	-0.393753	0.107033	-2.45982	0.144832	-73.5778	1032.53	97.02800000000001	-0.175347	0	-0.834817	-0.233531	3.27719	0.307961
1.21	-113.288	480.478	-49.6861	-0.188623	0	-0.387732	0.446769	-1.89484	0.195945	-160.46	1023.17	101.285	-0.17322	0	-0.833973	-0.557507	3.55494	0.351907
1.22	-201.758	320.223	-73.825	-0.133209	0	-0.377281	0.115101	-0.182684	0.0421164	-289.328	766.147	89.2328	-0.144923	0	-0.835746	-0.948752	2.51231	0.292608
1.23	-245.288	341.06	-87.057	-0.120258	0	-0.37644	-0.132587	0.184355	-0.0470573	-288.619	652.447	74.7589	-0.1293	0	-0.836798	-1.34347	3.03703	0.347989
1.24	-232.188	393.335	-80.3969	-0.124299	0	-0.378236	0.287683	-0.487345	0.09961250000000001	-228.36	672.768	78.2329	-0.132081	0	-0.837221	-1.41213	4.16024	0.483774
1.25	-198.333	450.294	-66.554	-0.130263	0	-0.380509	0.806495	-1.83106	0.270633	-204.21	703.021	83.78230000000001	-0.131065	0	-0.837861	-1.4473	4.98254	0.593792
1.26	-161.402	510.789	-58.6851	-0.136837	0	-0.383172	0.835566	-2.64431	0.303807	-200.646	689.354	86.3933	-0.123858	0	-0.83895	-1.50649	5.1758	0.648657
1.27	-126.011	550.08	-58.2301	-0.140257	0	-0.384512	0.596091	-2.60215	0.275457	-186.433	658.979	87.23569999999999	-0.117094	0	-0.839819	-1.38029	4.87888	0.6458660000000001
1.28	-101.148	547.811	-58.1251	-0.137467	0	-0.38468	0.377419	-2.04407	0.216884	-162.236	628.427	80.5651	-0.112843	0	-0.839551	-1.2115	4.6928	0.601622
1.29	-83.9618	514.678	-54.9314	-0.129939	0	-0.384553	0.213651	-1.30966	0.139779	-140.493	605.952	71.1202	-0.110333	0	-0.838773	-1.09595	4.72687	0.55479
1.3	-72.0933	477.108	-48.2804	-0.122131	0	-0.385151	0.121184	-0.801988	0.0811562	-132.087	596.901	68.1541	-0.108294	0	-0.838225	-0.99192	4.48248	0.511809
1.31	-74.9722	448.749	-41.5029	-0.116038	0	-0.386536	0.137082	-0.820508	0.0758852	-135.895	599.696	70.83280000000001	-0.10665	0	-0.838	-0.9290659999999999	4.0999	0.484257
1.32	-89.09050000000001	423.46	-37.0159	-0.11067	0	-0.387735	0.216606	-1.02956	0.0899969	-140.32	604.38	71.5337	-0.105979	0	-0.83765	-0.95207	4.1007	0.485354
1.33	-99.4256	396.395	-34.7924	-0.106311	0	-0.388512	0.273159	-1.08905	0.0955879	-139.758	604.284	68.60850000000001	-0.106263	0	-0.837091	-1.03635	4.48095	0.508752
1.34	-102.817	374.417	-33.061	-0.103654	0	-0.389039	0.344252	-1.25363	0.110695	-135.126	602.9690000000001	66.1199	-0.108009	0	-0.836571	-1.09814	4.9002	0.537342
1.35	-103.51	364.651	-31.2689	-0.102775	0	-0.389315	0.481225	-1.69529	0.145371	-125.144	613.285	65.9273	-0.113133	0	-0.835928	-1.08182	5.30165	0.56992
1.36	-105.108	369.42	-30.8592	-0.103512	0	-0.389413	0.672234	-2.36268	0.197365	-105.615	639.897	67.56480000000001	-0.122325	0	-0.834999	-0.946783	5.73634	0.605683
1.37	-102.571	380.567	-32.0516	-0.105921	0	-0.389284	0.8589639999999999	-3.18699	0.268411	-79.35469999999999	668.123	71.0628	-0.132674	0	-0.834472	-0.711099	5.98707	0.636795
1.38	-95.09099999999999	393.087	-35.1601	-0.109706	0	-0.388407	0.986239	-4.07691	0.364664	-55.5861	680.819	73.1849	-0.140865	0	-0.834517	-0.504396	6.17784	0.664089
1.39	-87.6503	415.287	-39.5081	-0.116445	0	-0.387392	1.03004	-4.88031	0.464285	-46.6293	670.879	72.4562	-0.144602	0	-0.83527	-0.456409	6.56659	0.709203
1.4	-68.04470000000001	474.724	-42.4468	-0.134506	0	-0.38947	0.806658	-5.62776	0.503199	-51.1723	652.427	70.8918	-0.14511	0	-0.836352	-0.5570619999999999	7.10232	0.771729
1.41	-14.1303	572.215	-49.0744	-0.161487	0	-0.393996	0.139123	-5.63389	0.483174	-53.4476	645.0410000000001	70.26300000000001	-0.146512	0	-0.836913	-0.62361	7.52614	0.819807
1.42	30.558	618.4109999999999	-71.3185	-0.176631	0	-0.393654	-0.215163	-4.35431	0.502163	-47.3922	648.614	69.7829	-0.149996	0	-0.83655	-0.569868	7.79929	0.839107
1.43	19.0063	582.992	-82.2015	-0.175997	0	-0.390939	-0.125271	-3.84253	0.541794	-39.0103	653.563	68.10550000000001	-0.153495	0	-0.835912	-0.478573	8.017810000000001	0.835508
1.44	-16.9523	530.812	-69.36199999999999	-0.169217	0	-0.390386	0.166196	-5.20394	0.680005	-33.7152	655.9829999999999	66.4464	-0.155523	0	-0.83553	-0.417649	8.12603	0.823109
1.45	-31.9595	508.243	-55.8448	-0.166516	0	-0.391831	0.413882	-6.58185	0.723201	-30.0506	656.778	66.1493	-0.156666	0	-0.835257	-0.364422	7.96472	0.802189
1.46	-25.5785	509.982	-58.5994	-0.168218	0	-0.392591	0.327065	-6.52099	0.749294	-25.0124	657.477	65.4969	-0.157854	0	-0.834655	-0.287163	7.54837	0.751958
1.47	-15.6218	516.217	-67.61839999999999	-0.170195	0	-0.392406	0.17325	-5.72498	0.749905	-19.6593	657.277	63.7976	-0.158639	0	-0.833859	-0.210196	7.02756	0.682119
1.48	-11.2457	515.739	-69.88939999999999	-0.170271	0	-0.392622	0.113786	-5.21833	0.707152	-18.067	653.269	61.9133	-0.157661	0	-0.833247	-0.179751	6.49948	0.615986
1.49	-9.44745	510.043	-67.1328	-0.16919	0	-0.393197	0.09478640000000001	-5.11727	0.673544	-21.8934	641.576	59.9364	-0.154696	0	-0.8331730000000001	-0.205351	6.01774	0.562181
1.5	-5.62415	504.466	-66.7145	-0.168256	0	-0.393461	0.0565767	-5.07473	0.67112	-27.4621	624.668	58.2759	-0.150689	0	-0.833526	-0.245488	5.58401	0.520938
1.51	0.163189	501.559	-69.5359	-0.167791	0	-0.39343	-0.00159472	-4.90135	0.679521	-31.6378	608.831	58.721	-0.146703	0	-0.834302	-0.271962	5.23358	0.504772
1.52	5.17613	498.447	-71.9449	-0.167182	0	-0.393313	-0.0485591	-4.67611	0.67494	-34.2945	595.684	61.2537	-0.143122	0	-0.835496	-0.285411	4.95748	0.5097739999999999
